<svg xmlns="http://www.w3.org/2000/svg" xmlns:xlink="http://www.w3.org/1999/xlink" width="40" zoomAndPan="magnify" viewBox="0 0 30 30.000001" height="40" preserveAspectRatio="xMidYMid meet" version="1.0"><defs><clipPath id="5776811170"><path d="M 4.476562 0 L 25.523438 0 L 25.523438 29.03125 L 4.476562 29.03125 Z M 4.476562 0 " clip-rule="nonzero"/></clipPath><clipPath id="3f4418590c"><path d="M 8.351562 3.148438 L 20.851562 3.148438 L 20.851562 17.367188 L 8.351562 17.367188 Z M 8.351562 3.148438 " clip-rule="nonzero"/></clipPath><clipPath id="8807874fb4"><path d="M 8.394531 9.871094 C 9.410156 8.636719 9.917969 8.347656 9.992188 8.128906 C 10.066406 8.054688 10.136719 7.910156 10.066406 7.839844 C 10.066406 7.695312 9.773438 7.621094 9.703125 7.476562 C 9.628906 7.113281 9.917969 6.386719 10.066406 5.953125 C 10.28125 5.515625 10.5 5.082031 10.789062 4.71875 C 11.007812 4.355469 11.296875 3.992188 11.660156 3.703125 C 12.023438 3.410156 12.605469 3.121094 13.039062 3.195312 C 13.476562 3.195312 14.128906 3.484375 14.347656 3.773438 C 14.492188 3.992188 14.417969 4.425781 14.492188 4.425781 C 14.566406 4.5 14.636719 4.355469 14.78125 4.28125 C 15.074219 4.210938 15.652344 4.28125 16.015625 4.28125 C 16.453125 4.28125 16.816406 4.210938 17.25 4.28125 C 17.613281 4.425781 17.976562 4.644531 18.339844 4.863281 C 18.773438 5.082031 19.136719 5.371094 19.425781 5.734375 C 19.789062 6.097656 20.007812 6.605469 20.152344 7.113281 C 20.296875 7.621094 20.296875 8.566406 20.226562 8.78125 C 20.226562 8.855469 20.226562 8.925781 20.226562 9 C 20.226562 9 20.226562 9.074219 20.226562 9.144531 C 20.226562 9.21875 20.226562 9.21875 20.226562 9.289062 C 20.226562 9.289062 20.296875 9.289062 20.296875 9.289062 C 20.296875 9.289062 20.371094 9.363281 20.445312 9.433594 C 20.445312 9.433594 20.515625 9.507812 20.515625 9.507812 C 20.515625 9.507812 20.589844 9.652344 20.589844 9.652344 C 20.660156 9.726562 20.660156 9.796875 20.660156 9.796875 C 20.660156 9.796875 20.734375 9.871094 20.734375 9.945312 C 20.734375 10.015625 20.804688 10.089844 20.804688 10.089844 C 20.804688 10.089844 20.804688 10.234375 20.804688 10.234375 C 20.804688 10.304688 20.804688 10.378906 20.804688 10.378906 C 20.804688 10.378906 20.804688 10.523438 20.804688 10.523438 C 20.734375 10.597656 20.734375 10.667969 20.734375 10.667969 C 20.734375 10.667969 20.734375 10.816406 20.660156 10.816406 C 20.660156 10.886719 20.589844 10.960938 20.589844 10.960938 C 20.589844 10.960938 20.589844 11.03125 20.515625 11.105469 C 20.515625 11.175781 20.445312 11.25 20.445312 11.25 C 20.445312 11.25 20.371094 11.25 20.296875 11.324219 C 20.296875 11.324219 20.226562 11.394531 20.152344 11.394531 C 20.152344 11.46875 20.007812 11.613281 20.007812 11.683594 C 20.007812 11.683594 20.007812 11.757812 20.007812 11.757812 C 20.007812 11.757812 20.082031 11.832031 20.082031 11.902344 C 20.152344 11.902344 20.152344 11.976562 20.152344 12.046875 C 20.152344 12.046875 20.152344 12.121094 20.226562 12.195312 C 20.226562 12.195312 20.226562 12.339844 20.226562 12.339844 C 20.226562 12.339844 20.226562 12.410156 20.226562 12.484375 C 20.226562 12.484375 20.226562 12.554688 20.226562 12.628906 C 20.226562 12.703125 20.082031 13.066406 20.152344 13.136719 C 20.152344 13.136719 20.226562 13.136719 20.226562 13.136719 C 20.371094 13.28125 20.515625 13.933594 20.515625 14.371094 C 20.445312 14.734375 20.226562 15.167969 20.082031 15.53125 C 19.933594 15.96875 19.863281 16.402344 19.574219 16.695312 C 19.210938 17.054688 18.121094 17.417969 17.683594 17.273438 C 17.324219 17.128906 17.105469 16.476562 17.105469 16.183594 C 17.03125 15.96875 17.25 15.605469 17.175781 15.53125 C 17.105469 15.460938 16.960938 15.605469 16.742188 15.675781 C 16.453125 15.75 16.015625 15.894531 15.652344 15.96875 C 15.289062 16.039062 14.925781 16.183594 14.566406 16.257812 C 14.273438 16.332031 13.984375 16.332031 13.765625 16.402344 C 13.695312 16.402344 13.621094 16.402344 13.546875 16.476562 C 13.476562 16.476562 13.476562 16.402344 13.476562 16.402344 C 13.332031 16.476562 12.824219 16.621094 12.605469 16.621094 C 12.386719 16.621094 12.316406 16.476562 12.097656 16.402344 C 11.953125 16.402344 11.804688 16.476562 11.589844 16.402344 C 11.226562 16.332031 10.789062 16.257812 10.355469 16.039062 C 9.992188 15.894531 9.484375 15.675781 9.195312 15.316406 C 8.832031 14.953125 8.683594 14.226562 8.613281 13.71875 C 8.539062 13.355469 8.613281 12.917969 8.613281 12.628906 C 8.683594 12.339844 8.832031 11.976562 8.757812 11.902344 C 8.683594 11.832031 8.613281 11.902344 8.539062 11.832031 C 8.394531 11.613281 8.394531 9.871094 8.394531 9.871094 " clip-rule="nonzero"/></clipPath></defs><g clip-path="url(#5776811170)"><path fill="#ff3131" d="M 13.316406 23.613281 C 12.90625 22.414062 12.152344 21.359375 11.148438 20.582031 L 8.683594 18.667969 C 6.152344 16.703125 4.613281 13.722656 4.480469 10.519531 C 4.480469 4.710938 9.191406 0 15 0 C 20.808594 0 25.519531 4.710938 25.519531 10.519531 C 25.386719 13.722656 23.847656 16.703125 21.316406 18.667969 L 18.851562 20.582031 C 17.847656 21.359375 17.09375 22.414062 16.683594 23.613281 L 16.394531 24.460938 C 16.1875 25.054688 15.628906 25.457031 15 25.457031 C 14.371094 25.457031 13.8125 25.054688 13.605469 24.460938 Z M 15 29.03125 C 12.675781 29.03125 10.792969 28.75 10.792969 28.402344 C 10.792969 28.050781 12.675781 27.769531 15 27.769531 C 17.324219 27.769531 19.207031 28.050781 19.207031 28.402344 C 19.207031 28.75 17.324219 29.03125 15 29.03125 Z M 15 18.722656 C 19.648438 18.722656 23.414062 14.957031 23.414062 10.308594 C 23.414062 5.660156 19.648438 1.894531 15 1.894531 C 10.351562 1.894531 6.585938 5.660156 6.585938 10.308594 C 6.585938 14.957031 10.351562 18.722656 15 18.722656 Z M 17.972656 5.15625 C 18.648438 5.429688 19.027344 5.792969 19.101562 6.246094 L 19.625 9.496094 C 19.625 9.511719 19.628906 9.527344 19.628906 9.546875 L 19.628906 13.234375 C 19.628906 13.5 19.414062 13.714844 19.148438 13.714844 L 10.851562 13.714844 C 10.585938 13.714844 10.371094 13.5 10.371094 13.234375 L 10.371094 9.542969 C 10.371094 9.527344 10.371094 9.511719 10.375 9.496094 L 10.859375 6.246094 C 10.9375 5.792969 11.3125 5.429688 11.988281 5.15625 C 12.84375 4.804688 13.839844 4.628906 14.980469 4.628906 C 16.121094 4.628906 17.121094 4.804688 17.972656 5.15625 Z M 17.894531 13.113281 C 18.25 13.113281 18.535156 13.398438 18.535156 13.75 L 18.535156 14.710938 C 18.535156 15.066406 18.25 15.351562 17.894531 15.351562 C 17.539062 15.351562 17.253906 15.066406 17.253906 14.710938 L 17.253906 13.75 C 17.253906 13.398438 17.539062 13.113281 17.894531 13.113281 Z M 11.972656 13.113281 C 12.324219 13.113281 12.613281 13.398438 12.613281 13.75 L 12.613281 14.710938 C 12.613281 15.066406 12.324219 15.351562 11.972656 15.351562 C 11.617188 15.351562 11.332031 15.066406 11.332031 14.710938 L 11.332031 13.75 C 11.332031 13.398438 11.617188 13.113281 11.972656 13.113281 Z M 12.726562 12.273438 C 12.886719 12.117188 12.96875 11.921875 12.96875 11.6875 C 12.96875 11.457031 12.886719 11.261719 12.726562 11.105469 C 12.5625 10.949219 12.371094 10.871094 12.152344 10.871094 C 11.929688 10.871094 11.738281 10.949219 11.574219 11.105469 C 11.414062 11.261719 11.332031 11.457031 11.332031 11.6875 C 11.332031 11.921875 11.414062 12.117188 11.574219 12.273438 C 11.738281 12.429688 11.929688 12.507812 12.152344 12.507812 C 12.371094 12.507812 12.5625 12.429688 12.726562 12.273438 Z M 18.320312 12.273438 C 18.488281 12.117188 18.570312 11.921875 18.570312 11.6875 C 18.570312 11.457031 18.488281 11.261719 18.320312 11.105469 C 18.15625 10.949219 17.957031 10.871094 17.730469 10.871094 C 17.503906 10.871094 17.3125 10.949219 17.160156 11.105469 C 17.011719 11.261719 16.933594 11.457031 16.933594 11.6875 C 16.933594 11.921875 17.011719 12.117188 17.160156 12.273438 C 17.3125 12.429688 17.503906 12.507812 17.730469 12.507812 C 17.957031 12.507812 18.15625 12.429688 18.320312 12.273438 Z M 13.554688 5.429688 C 13.300781 5.429688 13.09375 5.636719 13.09375 5.890625 C 13.09375 6.144531 13.300781 6.351562 13.554688 6.351562 L 16.320312 6.351562 C 16.574219 6.351562 16.78125 6.144531 16.78125 5.890625 C 16.78125 5.636719 16.574219 5.429688 16.320312 5.429688 Z M 11.8125 7.035156 C 11.730469 7.035156 11.652344 7.105469 11.636719 7.1875 L 11.203125 9.671875 C 11.1875 9.753906 11.253906 9.820312 11.347656 9.820312 L 18.675781 9.820312 C 18.769531 9.820312 18.835938 9.753906 18.824219 9.671875 L 18.386719 7.1875 C 18.371094 7.105469 18.292969 7.035156 18.210938 7.035156 Z M 11.8125 7.035156 " fill-opacity="1" fill-rule="nonzero"/></g><g clip-path="url(#3f4418590c)"><g clip-path="url(#8807874fb4)"><path fill="#ffffff" d="M 5.492188 0.289062 L 23.78125 0.289062 L 23.78125 20.222656 L 5.492188 20.222656 Z M 5.492188 0.289062 " fill-opacity="1" fill-rule="nonzero"/></g></g><path fill="#ff3131" d="M 19.449219 10.902344 L 19.449219 7.085938 L 20.082031 7.085938 L 20.082031 5.175781 L 9.90625 5.175781 L 9.90625 7.085938 L 10.542969 7.085938 L 10.542969 10.902344 L 8.636719 10.902344 C 8.636719 11.492188 8.953125 11.988281 9.589844 12.128906 L 9.589844 15.355469 C 9.589844 15.53125 9.652344 15.679688 9.777344 15.804688 C 9.898438 15.929688 10.050781 15.988281 10.226562 15.988281 L 10.859375 15.988281 C 11.035156 15.988281 11.1875 15.929688 11.3125 15.804688 C 11.433594 15.679688 11.496094 15.53125 11.496094 15.355469 L 11.496094 14.71875 L 18.492188 14.71875 L 18.492188 15.355469 C 18.492188 15.53125 18.554688 15.679688 18.679688 15.804688 C 18.804688 15.929688 18.953125 15.988281 19.128906 15.988281 L 19.765625 15.988281 C 19.941406 15.988281 20.089844 15.929688 20.214844 15.804688 C 20.339844 15.679688 20.402344 15.53125 20.402344 15.355469 L 20.402344 12.128906 C 21.039062 11.984375 21.355469 11.492188 21.355469 10.902344 Z M 12.453125 12.171875 C 12.1875 12.171875 11.964844 12.082031 11.777344 11.894531 C 11.589844 11.707031 11.496094 11.484375 11.496094 11.21875 C 11.496094 10.957031 11.589844 10.730469 11.777344 10.546875 C 11.964844 10.359375 12.1875 10.265625 12.453125 10.265625 C 12.714844 10.265625 12.941406 10.359375 13.125 10.546875 C 13.3125 10.730469 13.40625 10.957031 13.40625 11.21875 C 13.40625 11.484375 13.3125 11.707031 13.125 11.894531 C 12.941406 12.082031 12.714844 12.171875 12.453125 12.171875 M 17.539062 12.171875 C 17.277344 12.171875 17.050781 12.082031 16.863281 11.894531 C 16.679688 11.707031 16.585938 11.484375 16.585938 11.21875 C 16.585938 10.957031 16.679688 10.730469 16.863281 10.546875 C 17.050781 10.359375 17.277344 10.265625 17.539062 10.265625 C 17.804688 10.265625 18.027344 10.359375 18.214844 10.546875 C 18.402344 10.730469 18.492188 10.957031 18.492188 11.21875 C 18.492188 11.484375 18.402344 11.707031 18.214844 11.894531 C 18.027344 12.082031 17.804688 12.171875 17.539062 12.171875 M 18.492188 9.3125 C 17.488281 9.109375 16.285156 8.992188 14.996094 8.992188 C 13.703125 8.992188 12.453125 9.109375 11.496094 9.3125 L 11.496094 7.085938 L 18.492188 7.085938 Z M 18.492188 9.3125 " fill-opacity="1" fill-rule="nonzero"/></svg>